<mxfile host="app.diagrams.net" modified="2022-06-29T13:45:57.936Z" agent="5.0 (Windows NT 10.0; Win64; x64) AppleWebKit/537.36 (KHTML, like Gecko) Chrome/103.0.0.0 Safari/537.36" etag="q1pEM5A8yYBir8m4EYKF" version="20.0.4" type="github">
  <diagram id="HN3qp9Xd8DjhQbNvptif" name="Page-1">
    <mxGraphModel dx="820" dy="642" grid="1" gridSize="10" guides="1" tooltips="1" connect="1" arrows="1" fold="1" page="1" pageScale="1" pageWidth="827" pageHeight="1169" math="0" shadow="0">
      <root>
        <mxCell id="0" />
        <mxCell id="1" parent="0" />
        <mxCell id="b81uUcF1nzYAYFc-ZDOm-2" value="int kmp(std::string str, std::string pat)" style="swimlane;" vertex="1" parent="1">
          <mxGeometry x="50" y="30" width="400" height="1680" as="geometry" />
        </mxCell>
        <mxCell id="b81uUcF1nzYAYFc-ZDOm-4" style="edgeStyle=orthogonalEdgeStyle;rounded=0;orthogonalLoop=1;jettySize=auto;html=1;entryX=0.5;entryY=0;entryDx=0;entryDy=0;entryPerimeter=0;" edge="1" parent="b81uUcF1nzYAYFc-ZDOm-2" source="b81uUcF1nzYAYFc-ZDOm-1" target="b81uUcF1nzYAYFc-ZDOm-3">
          <mxGeometry relative="1" as="geometry" />
        </mxCell>
        <mxCell id="b81uUcF1nzYAYFc-ZDOm-1" value="int m = (int)pat.size();&#xa;	int j = 0;&#xa;	int* pi = new int[m] {0,};" style="rounded=1;whiteSpace=wrap;html=1;absoluteArcSize=1;arcSize=14;strokeWidth=2;" vertex="1" parent="b81uUcF1nzYAYFc-ZDOm-2">
          <mxGeometry x="40" y="50" width="160" height="70" as="geometry" />
        </mxCell>
        <mxCell id="b81uUcF1nzYAYFc-ZDOm-6" style="edgeStyle=orthogonalEdgeStyle;rounded=0;orthogonalLoop=1;jettySize=auto;html=1;entryX=0.5;entryY=0;entryDx=0;entryDy=0;entryPerimeter=0;" edge="1" parent="b81uUcF1nzYAYFc-ZDOm-2" source="b81uUcF1nzYAYFc-ZDOm-3" target="b81uUcF1nzYAYFc-ZDOm-5">
          <mxGeometry relative="1" as="geometry" />
        </mxCell>
        <mxCell id="b81uUcF1nzYAYFc-ZDOm-3" value="int i = 1; i++" style="strokeWidth=2;html=1;shape=mxgraph.flowchart.loop_limit;whiteSpace=wrap;" vertex="1" parent="b81uUcF1nzYAYFc-ZDOm-2">
          <mxGeometry x="35" y="160" width="170" height="60" as="geometry" />
        </mxCell>
        <mxCell id="b81uUcF1nzYAYFc-ZDOm-8" style="edgeStyle=orthogonalEdgeStyle;rounded=0;orthogonalLoop=1;jettySize=auto;html=1;entryX=0.5;entryY=0;entryDx=0;entryDy=0;" edge="1" parent="b81uUcF1nzYAYFc-ZDOm-2" source="b81uUcF1nzYAYFc-ZDOm-5" target="b81uUcF1nzYAYFc-ZDOm-7">
          <mxGeometry relative="1" as="geometry" />
        </mxCell>
        <mxCell id="b81uUcF1nzYAYFc-ZDOm-5" value="j &gt; 0 &amp;&amp; pat[i] != pat[j]" style="strokeWidth=2;html=1;shape=mxgraph.flowchart.loop_limit;whiteSpace=wrap;" vertex="1" parent="b81uUcF1nzYAYFc-ZDOm-2">
          <mxGeometry x="35" y="270" width="170" height="60" as="geometry" />
        </mxCell>
        <mxCell id="b81uUcF1nzYAYFc-ZDOm-7" value="j = pi[j - 1];" style="rounded=1;whiteSpace=wrap;html=1;absoluteArcSize=1;arcSize=14;strokeWidth=2;" vertex="1" parent="b81uUcF1nzYAYFc-ZDOm-2">
          <mxGeometry x="70" y="370" width="100" height="40" as="geometry" />
        </mxCell>
        <mxCell id="b81uUcF1nzYAYFc-ZDOm-12" style="edgeStyle=orthogonalEdgeStyle;rounded=0;orthogonalLoop=1;jettySize=auto;html=1;" edge="1" parent="b81uUcF1nzYAYFc-ZDOm-2" source="b81uUcF1nzYAYFc-ZDOm-10" target="b81uUcF1nzYAYFc-ZDOm-11">
          <mxGeometry relative="1" as="geometry" />
        </mxCell>
        <mxCell id="b81uUcF1nzYAYFc-ZDOm-10" value="" style="strokeWidth=2;html=1;shape=mxgraph.flowchart.loop_limit;whiteSpace=wrap;rotation=-180;" vertex="1" parent="b81uUcF1nzYAYFc-ZDOm-2">
          <mxGeometry x="70" y="450" width="100" height="60" as="geometry" />
        </mxCell>
        <mxCell id="b81uUcF1nzYAYFc-ZDOm-9" style="edgeStyle=orthogonalEdgeStyle;rounded=0;orthogonalLoop=1;jettySize=auto;html=1;" edge="1" parent="b81uUcF1nzYAYFc-ZDOm-2" source="b81uUcF1nzYAYFc-ZDOm-7" target="b81uUcF1nzYAYFc-ZDOm-10">
          <mxGeometry relative="1" as="geometry">
            <mxPoint x="120" y="440" as="targetPoint" />
          </mxGeometry>
        </mxCell>
        <mxCell id="b81uUcF1nzYAYFc-ZDOm-17" value="false" style="edgeStyle=orthogonalEdgeStyle;rounded=0;orthogonalLoop=1;jettySize=auto;html=1;entryX=0.5;entryY=1;entryDx=0;entryDy=0;entryPerimeter=0;" edge="1" parent="b81uUcF1nzYAYFc-ZDOm-2" source="b81uUcF1nzYAYFc-ZDOm-11" target="b81uUcF1nzYAYFc-ZDOm-16">
          <mxGeometry relative="1" as="geometry">
            <Array as="points">
              <mxPoint x="200" y="590" />
              <mxPoint x="200" y="730" />
              <mxPoint x="120" y="730" />
            </Array>
          </mxGeometry>
        </mxCell>
        <mxCell id="b81uUcF1nzYAYFc-ZDOm-11" value="pat[i] == pat[j]" style="strokeWidth=2;html=1;shape=mxgraph.flowchart.decision;whiteSpace=wrap;" vertex="1" parent="b81uUcF1nzYAYFc-ZDOm-2">
          <mxGeometry x="70" y="560" width="100" height="60" as="geometry" />
        </mxCell>
        <mxCell id="b81uUcF1nzYAYFc-ZDOm-14" value="pi[i] = ++j;" style="rounded=1;whiteSpace=wrap;html=1;absoluteArcSize=1;arcSize=14;strokeWidth=2;" vertex="1" parent="b81uUcF1nzYAYFc-ZDOm-2">
          <mxGeometry x="70" y="660" width="100" height="50" as="geometry" />
        </mxCell>
        <mxCell id="b81uUcF1nzYAYFc-ZDOm-13" value="true" style="edgeStyle=orthogonalEdgeStyle;rounded=0;orthogonalLoop=1;jettySize=auto;html=1;" edge="1" parent="b81uUcF1nzYAYFc-ZDOm-2" source="b81uUcF1nzYAYFc-ZDOm-11" target="b81uUcF1nzYAYFc-ZDOm-14">
          <mxGeometry relative="1" as="geometry">
            <mxPoint x="120" y="670" as="targetPoint" />
          </mxGeometry>
        </mxCell>
        <mxCell id="b81uUcF1nzYAYFc-ZDOm-16" value="" style="strokeWidth=2;html=1;shape=mxgraph.flowchart.loop_limit;whiteSpace=wrap;rotation=-180;" vertex="1" parent="b81uUcF1nzYAYFc-ZDOm-2">
          <mxGeometry x="70" y="750" width="100" height="40" as="geometry" />
        </mxCell>
        <mxCell id="b81uUcF1nzYAYFc-ZDOm-15" style="edgeStyle=orthogonalEdgeStyle;rounded=0;orthogonalLoop=1;jettySize=auto;html=1;" edge="1" parent="b81uUcF1nzYAYFc-ZDOm-2" source="b81uUcF1nzYAYFc-ZDOm-14" target="b81uUcF1nzYAYFc-ZDOm-16">
          <mxGeometry relative="1" as="geometry">
            <mxPoint x="120" y="750" as="targetPoint" />
          </mxGeometry>
        </mxCell>
        <mxCell id="b81uUcF1nzYAYFc-ZDOm-18" value="&lt;span style=&quot;color: rgb(0, 0, 0); font-family: Helvetica; font-size: 12px; font-style: normal; font-variant-ligatures: normal; font-variant-caps: normal; font-weight: 400; letter-spacing: normal; orphans: 2; text-align: center; text-indent: 0px; text-transform: none; widows: 2; word-spacing: 0px; -webkit-text-stroke-width: 0px; background-color: rgb(248, 249, 250); text-decoration-thickness: initial; text-decoration-style: initial; text-decoration-color: initial; float: none; display: inline !important;&quot;&gt;i &amp;lt; m&lt;/span&gt;" style="text;html=1;strokeColor=none;fillColor=none;align=center;verticalAlign=middle;whiteSpace=wrap;rounded=0;" vertex="1" parent="b81uUcF1nzYAYFc-ZDOm-2">
          <mxGeometry x="90" y="755" width="60" height="30" as="geometry" />
        </mxCell>
        <mxCell id="b81uUcF1nzYAYFc-ZDOm-23" style="edgeStyle=orthogonalEdgeStyle;rounded=0;orthogonalLoop=1;jettySize=auto;html=1;entryX=0.5;entryY=0;entryDx=0;entryDy=0;entryPerimeter=0;" edge="1" parent="b81uUcF1nzYAYFc-ZDOm-2" source="b81uUcF1nzYAYFc-ZDOm-21" target="b81uUcF1nzYAYFc-ZDOm-22">
          <mxGeometry relative="1" as="geometry" />
        </mxCell>
        <mxCell id="b81uUcF1nzYAYFc-ZDOm-21" value="int ans=-1;&#xa;	int n = (int)str.size();&#xa;	j = 0;" style="rounded=1;whiteSpace=wrap;html=1;absoluteArcSize=1;arcSize=14;strokeWidth=2;" vertex="1" parent="b81uUcF1nzYAYFc-ZDOm-2">
          <mxGeometry x="50" y="820" width="140" height="60" as="geometry" />
        </mxCell>
        <mxCell id="b81uUcF1nzYAYFc-ZDOm-20" style="edgeStyle=orthogonalEdgeStyle;rounded=0;orthogonalLoop=1;jettySize=auto;html=1;entryX=0.5;entryY=0;entryDx=0;entryDy=0;" edge="1" parent="b81uUcF1nzYAYFc-ZDOm-2" source="b81uUcF1nzYAYFc-ZDOm-16" target="b81uUcF1nzYAYFc-ZDOm-21">
          <mxGeometry relative="1" as="geometry">
            <mxPoint x="120" y="880" as="targetPoint" />
          </mxGeometry>
        </mxCell>
        <mxCell id="b81uUcF1nzYAYFc-ZDOm-29" style="edgeStyle=orthogonalEdgeStyle;rounded=0;orthogonalLoop=1;jettySize=auto;html=1;entryX=0.5;entryY=0;entryDx=0;entryDy=0;entryPerimeter=0;" edge="1" parent="b81uUcF1nzYAYFc-ZDOm-2" source="b81uUcF1nzYAYFc-ZDOm-22" target="b81uUcF1nzYAYFc-ZDOm-25">
          <mxGeometry relative="1" as="geometry" />
        </mxCell>
        <mxCell id="b81uUcF1nzYAYFc-ZDOm-22" value="int i = 0;&amp;nbsp; i++" style="strokeWidth=2;html=1;shape=mxgraph.flowchart.loop_limit;whiteSpace=wrap;" vertex="1" parent="b81uUcF1nzYAYFc-ZDOm-2">
          <mxGeometry x="70" y="920" width="100" height="60" as="geometry" />
        </mxCell>
        <mxCell id="b81uUcF1nzYAYFc-ZDOm-25" value="j &amp;gt; 0 &amp;amp;&amp;amp; str[i] != pat[j]" style="strokeWidth=2;html=1;shape=mxgraph.flowchart.loop_limit;whiteSpace=wrap;" vertex="1" parent="b81uUcF1nzYAYFc-ZDOm-2">
          <mxGeometry x="35" y="1010" width="170" height="60" as="geometry" />
        </mxCell>
        <mxCell id="b81uUcF1nzYAYFc-ZDOm-26" value="j = pi[j - 1];" style="rounded=1;whiteSpace=wrap;html=1;absoluteArcSize=1;arcSize=14;strokeWidth=2;" vertex="1" parent="b81uUcF1nzYAYFc-ZDOm-2">
          <mxGeometry x="70" y="1110" width="100" height="40" as="geometry" />
        </mxCell>
        <mxCell id="b81uUcF1nzYAYFc-ZDOm-24" style="edgeStyle=orthogonalEdgeStyle;rounded=0;orthogonalLoop=1;jettySize=auto;html=1;entryX=0.5;entryY=0;entryDx=0;entryDy=0;" edge="1" parent="b81uUcF1nzYAYFc-ZDOm-2" source="b81uUcF1nzYAYFc-ZDOm-25" target="b81uUcF1nzYAYFc-ZDOm-26">
          <mxGeometry relative="1" as="geometry" />
        </mxCell>
        <mxCell id="b81uUcF1nzYAYFc-ZDOm-31" style="edgeStyle=orthogonalEdgeStyle;rounded=0;orthogonalLoop=1;jettySize=auto;html=1;entryX=0.5;entryY=0;entryDx=0;entryDy=0;entryPerimeter=0;" edge="1" parent="b81uUcF1nzYAYFc-ZDOm-2" source="b81uUcF1nzYAYFc-ZDOm-27" target="b81uUcF1nzYAYFc-ZDOm-30">
          <mxGeometry relative="1" as="geometry" />
        </mxCell>
        <mxCell id="b81uUcF1nzYAYFc-ZDOm-27" value="" style="strokeWidth=2;html=1;shape=mxgraph.flowchart.loop_limit;whiteSpace=wrap;rotation=-180;" vertex="1" parent="b81uUcF1nzYAYFc-ZDOm-2">
          <mxGeometry x="70" y="1190" width="100" height="60" as="geometry" />
        </mxCell>
        <mxCell id="b81uUcF1nzYAYFc-ZDOm-28" style="edgeStyle=orthogonalEdgeStyle;rounded=0;orthogonalLoop=1;jettySize=auto;html=1;" edge="1" parent="b81uUcF1nzYAYFc-ZDOm-2" source="b81uUcF1nzYAYFc-ZDOm-26" target="b81uUcF1nzYAYFc-ZDOm-27">
          <mxGeometry relative="1" as="geometry">
            <mxPoint x="70" y="1150" as="targetPoint" />
          </mxGeometry>
        </mxCell>
        <mxCell id="b81uUcF1nzYAYFc-ZDOm-30" value="str[i] == pat[j]" style="strokeWidth=2;html=1;shape=mxgraph.flowchart.decision;whiteSpace=wrap;" vertex="1" parent="b81uUcF1nzYAYFc-ZDOm-2">
          <mxGeometry x="70" y="1280" width="100" height="60" as="geometry" />
        </mxCell>
        <mxCell id="b81uUcF1nzYAYFc-ZDOm-38" value="false" style="edgeStyle=orthogonalEdgeStyle;rounded=0;orthogonalLoop=1;jettySize=auto;html=1;entryX=0.5;entryY=0;entryDx=0;entryDy=0;" edge="1" parent="b81uUcF1nzYAYFc-ZDOm-2" source="b81uUcF1nzYAYFc-ZDOm-33" target="b81uUcF1nzYAYFc-ZDOm-36">
          <mxGeometry relative="1" as="geometry" />
        </mxCell>
        <mxCell id="b81uUcF1nzYAYFc-ZDOm-33" value="j == m - 1" style="strokeWidth=2;html=1;shape=mxgraph.flowchart.decision;whiteSpace=wrap;" vertex="1" parent="b81uUcF1nzYAYFc-ZDOm-2">
          <mxGeometry x="70" y="1380" width="100" height="60" as="geometry" />
        </mxCell>
        <mxCell id="b81uUcF1nzYAYFc-ZDOm-32" value="true" style="edgeStyle=orthogonalEdgeStyle;rounded=0;orthogonalLoop=1;jettySize=auto;html=1;entryX=0.5;entryY=0;entryDx=0;entryDy=0;entryPerimeter=0;" edge="1" parent="b81uUcF1nzYAYFc-ZDOm-2" source="b81uUcF1nzYAYFc-ZDOm-30" target="b81uUcF1nzYAYFc-ZDOm-33">
          <mxGeometry relative="1" as="geometry">
            <mxPoint x="120" y="1390" as="targetPoint" />
          </mxGeometry>
        </mxCell>
        <mxCell id="b81uUcF1nzYAYFc-ZDOm-40" style="edgeStyle=orthogonalEdgeStyle;rounded=0;orthogonalLoop=1;jettySize=auto;html=1;entryX=0.5;entryY=1;entryDx=0;entryDy=0;entryPerimeter=0;" edge="1" parent="b81uUcF1nzYAYFc-ZDOm-2" source="b81uUcF1nzYAYFc-ZDOm-35" target="b81uUcF1nzYAYFc-ZDOm-39">
          <mxGeometry relative="1" as="geometry" />
        </mxCell>
        <mxCell id="b81uUcF1nzYAYFc-ZDOm-35" value="ans=i - m + 1;&#xa;				j = pi[j];" style="rounded=1;whiteSpace=wrap;html=1;absoluteArcSize=1;arcSize=14;strokeWidth=2;" vertex="1" parent="b81uUcF1nzYAYFc-ZDOm-2">
          <mxGeometry x="70" y="1470" width="100" height="40" as="geometry" />
        </mxCell>
        <mxCell id="b81uUcF1nzYAYFc-ZDOm-34" value="true" style="edgeStyle=orthogonalEdgeStyle;rounded=0;orthogonalLoop=1;jettySize=auto;html=1;" edge="1" parent="b81uUcF1nzYAYFc-ZDOm-2" source="b81uUcF1nzYAYFc-ZDOm-33" target="b81uUcF1nzYAYFc-ZDOm-35">
          <mxGeometry relative="1" as="geometry">
            <mxPoint x="120" y="1490" as="targetPoint" />
          </mxGeometry>
        </mxCell>
        <mxCell id="b81uUcF1nzYAYFc-ZDOm-42" style="edgeStyle=orthogonalEdgeStyle;rounded=0;orthogonalLoop=1;jettySize=auto;html=1;entryX=0.5;entryY=1;entryDx=0;entryDy=0;entryPerimeter=0;" edge="1" parent="b81uUcF1nzYAYFc-ZDOm-2" source="b81uUcF1nzYAYFc-ZDOm-36" target="b81uUcF1nzYAYFc-ZDOm-39">
          <mxGeometry relative="1" as="geometry" />
        </mxCell>
        <mxCell id="b81uUcF1nzYAYFc-ZDOm-36" value="j++;" style="rounded=1;whiteSpace=wrap;html=1;absoluteArcSize=1;arcSize=14;strokeWidth=2;" vertex="1" parent="b81uUcF1nzYAYFc-ZDOm-2">
          <mxGeometry x="200" y="1470" width="100" height="40" as="geometry" />
        </mxCell>
        <mxCell id="b81uUcF1nzYAYFc-ZDOm-39" value="" style="strokeWidth=2;html=1;shape=mxgraph.flowchart.loop_limit;whiteSpace=wrap;rotation=-180;" vertex="1" parent="b81uUcF1nzYAYFc-ZDOm-2">
          <mxGeometry x="130" y="1560" width="100" height="40" as="geometry" />
        </mxCell>
        <mxCell id="b81uUcF1nzYAYFc-ZDOm-43" value="&#xa;&lt;span style=&quot;color: rgb(0, 0, 0); font-family: Helvetica; font-size: 12px; font-style: normal; font-variant-ligatures: normal; font-variant-caps: normal; font-weight: 400; letter-spacing: normal; orphans: 2; text-align: center; text-indent: 0px; text-transform: none; widows: 2; word-spacing: 0px; -webkit-text-stroke-width: 0px; background-color: rgb(248, 249, 250); text-decoration-thickness: initial; text-decoration-style: initial; text-decoration-color: initial; float: none; display: inline !important;&quot;&gt;i &amp;lt; n;&lt;/span&gt;&#xa;&#xa;" style="text;html=1;strokeColor=none;fillColor=none;align=center;verticalAlign=middle;whiteSpace=wrap;rounded=0;" vertex="1" parent="b81uUcF1nzYAYFc-ZDOm-2">
          <mxGeometry x="150" y="1570" width="60" height="30" as="geometry" />
        </mxCell>
        <mxCell id="b81uUcF1nzYAYFc-ZDOm-46" value="false" style="edgeStyle=orthogonalEdgeStyle;rounded=0;orthogonalLoop=1;jettySize=auto;html=1;entryX=0.5;entryY=1;entryDx=0;entryDy=0;entryPerimeter=0;" edge="1" parent="b81uUcF1nzYAYFc-ZDOm-2" source="b81uUcF1nzYAYFc-ZDOm-30" target="b81uUcF1nzYAYFc-ZDOm-39">
          <mxGeometry relative="1" as="geometry">
            <Array as="points">
              <mxPoint x="320" y="1310" />
              <mxPoint x="320" y="1550" />
              <mxPoint x="180" y="1550" />
            </Array>
          </mxGeometry>
        </mxCell>
        <mxCell id="b81uUcF1nzYAYFc-ZDOm-44" style="edgeStyle=orthogonalEdgeStyle;rounded=0;orthogonalLoop=1;jettySize=auto;html=1;" edge="1" parent="1" source="b81uUcF1nzYAYFc-ZDOm-39" target="b81uUcF1nzYAYFc-ZDOm-45">
          <mxGeometry relative="1" as="geometry">
            <mxPoint x="230" y="1670" as="targetPoint" />
          </mxGeometry>
        </mxCell>
        <mxCell id="b81uUcF1nzYAYFc-ZDOm-45" value="return ans;" style="rounded=1;whiteSpace=wrap;html=1;absoluteArcSize=1;arcSize=14;strokeWidth=2;" vertex="1" parent="1">
          <mxGeometry x="180" y="1660" width="100" height="40" as="geometry" />
        </mxCell>
      </root>
    </mxGraphModel>
  </diagram>
</mxfile>
